# xmcd
#
# Track frame offsets: 
#        150
#        21358
#        39053
#        62746
#        83976
#        104781
#        126128
#        148602
#        174002
#        192998
#        215034
#        228379
#        252126
#        272654
#        292873
#        311113
#
# Disc length: 4402 seconds
#
# Revision: 0
# Processed by: cddbd v1.5.2PL0 Copyright (c) Steve Scherf et al.
# Submitted via: ExactAudioCopy v1.0b1
#
DISCID=e5113010
DTITLE=Pave Maijanen - Kaikki nämä vuodet 1981-2010 [CD1)
DYEAR=2010
DGENRE=Pop
TTITLE0=Kaikki nämä vuodet
TTITLE1=Ai ai ai
TTITLE2=Palava sydän
TTITLE3=Jano
TTITLE4=Kuutamokeikka
TTITLE5=Hiljaiset kilometrit
TTITLE6=Keskiyön aurinko
TTITLE7=Maailman tuulet
TTITLE8=Jos tahdot
TTITLE9=Hame heilahtaa (vain kerran)
TTITLE10=Sirkus saapuu tivoliin
TTITLE11=Kohti uutta maailmaa
TTITLE12=Rakkauteni on tulta
TTITLE13=Lähtisitkö
TTITLE14=Kultaa ja hopeaa
TTITLE15=Kaikessa rauhassa
EXTD=
EXTT0=
EXTT1=
EXTT2=
EXTT3=
EXTT4=
EXTT5=
EXTT6=
EXTT7=
EXTT8=
EXTT9=
EXTT10=
EXTT11=
EXTT12=
EXTT13=
EXTT14=
EXTT15=
PLAYORDER=
